# xmcd
#
# Track frame offsets: 
#        150
#        21666
#        47356
#        65420
#        89938
#        107347
#        128742
#        142899
#        154781
#
# Disc length: 2370 seconds
#
# Revision: 0
# Processed by: cddbd v1.5.2PL0 Copyright (c) Steve Scherf et al.
# Submitted via: ExactAudioCopy v0.95a4
#
DISCID=75094009
DTITLE=Snake - Strike
DYEAR=2008
DGENRE=Hard Rock
TTITLE0=Let the music begin
TTITLE1=Sweet revenge
TTITLE2=Strike
TTITLE3=In for the kill
TTITLE4=Time
TTITLE5=Down that road
TTITLE6=Smokin' diesel
TTITLE7=Out of the night
TTITLE8=Mainline
EXTD=
EXTT0=
EXTT1=
EXTT2=
EXTT3=
EXTT4=
EXTT5=
EXTT6=
EXTT7=
EXTT8=
PLAYORDER=
